<?xml version="1.0" encoding="utf-8"?>
<!-- Generator: Adobe Illustrator 22.1.0, SVG Export Plug-In . SVG Version: 6.00 Build 0)  -->
<svg version="1.1" id="Layer_1" xmlns="http://www.w3.org/2000/svg" xmlns:xlink="http://www.w3.org/1999/xlink" x="0px" y="0px"
	 viewBox="0 0 50.8 35.6" style="enable-background:new 0 0 50.8 35.6;" xml:space="preserve">
<style type="text/css">
	.st0{fill:#FFFFFF;}
	.st1{fill:#B6C61A;}
</style>
<title>w</title>
<path class="st0" d="M24.5,9.7c-0.3,0-0.7,0-1,0.1c-0.5,0.1-1,0.2-1.5,0.3c-4.1,1.2-7.1,4.6-7.8,8.8c-0.1,0.4-0.1,0.9-0.1,1.3h-0.2
	l-1.1,0.2l-1,0.2l-1.1,0.2l-1.3,0.2l-1.1,0.2l-1.3,0.2l-1.1,0.3l-1,0.2L4,22.2l-1.3,0.2l-1,0.2L0.3,23c-0.1,0-0.2,0-0.2,0.1l0,0h0.1
	h0.2h0.8c0.8,0,1.6,0,2.4,0h0.7c0.8,0,1.6,0,2.4,0h2.2h1h1.4h1.7h1.3h0.4c0,0.2,0.1,0.4,0.2,0.5C16,28,20.2,31.1,24.9,31
	c0,0.4,0,0.8,0,1.3s0,1,0,1.5s0,0.8,0,1.2v0.3H25l0.2-0.3l2.2-4l0.2-0.3c0.3-0.1,0.5-0.1,0.8-0.2c3.1-1.1,5.6-3.6,6.7-6.7
	c0.2-0.6,0.3-1.2,0.4-1.8c0-0.3,0.1-0.5,0.1-0.8s0-0.5,0-0.8h0.1l0.4-0.1l2.8-0.7l2.9-0.7l2.9-0.7l2.9-0.7l2.7-0.6l0.4-0.1
	c0,0,0,0,0.1-0.1h-0.5h-0.9c-1,0-2,0-3,0h-0.9c-1,0-2,0-3,0h-3.7H38h-2.4h-0.5c0,0,0,0,0-0.1c-0.9-2.6-2.8-4.8-5.2-6.1
	c-0.5-0.2-0.9-0.4-1.4-0.6c0-0.1,0-0.2,0-0.2c0-0.8,0-1.7,0-2.5c0-1.4,0-2.7,0-4.1c0-0.1,0-0.1,0-0.2c0-0.1,0-0.2,0-0.3
	c0-0.7,0-1.5,0-2.2c0-0.2,0-0.3,0.1-0.5c0,0,0-0.1,0-0.1c0-0.1,0-0.1-0.1-0.2l0,0l0,0l0,0.1c-0.5,1.3-1,2.6-1.6,3.9
	c-0.6,1.3-1.1,2.6-1.6,4l-0.6,1.5C24.6,9.4,24.6,9.5,24.5,9.7z"/>
<path class="st1" d="M14.5,23.2h0.8h0.7h2h1h1.4c0.4,0,0.8,0,1.2,0h1.3l0,0c0.1,0,0.1,0,0.2-0.1l0.6-1.7c0.3-0.8,0.6-1.6,0.9-2.3
	c0-0.1,0.1-0.1,0.1-0.2l0,0c0,0,0,0.1,0,0.1c0,0.2,0,0.4,0,0.7c0,0.7,0,1.4,0,2.1s0,1.4,0,2s0,1.4,0,2.1s0,1.3,0,1.9s0,1.4,0,2.1
	v0.9v0.4c-4.6,0-8.6-3-10.1-7.3C14.6,23.6,14.5,23.4,14.5,23.2z"/>
<path class="st1" d="M24.5,9.7c0,0.1,0,0.1,0,0.2L24,11.1l-1.5,3.6L21,18.3l-0.2,0.5c0,0.1-0.1,0.1-0.1,0.1l-1.5,0.3l-1.6,0.3
	l-1.5,0.3l-1.2,0.2l-0.6,0.1h-0.2c0-0.4,0-0.9,0.1-1.3c0.6-4.2,3.7-7.6,7.7-8.8c0.5-0.1,1-0.2,1.5-0.3C23.8,9.7,24.1,9.7,24.5,9.7z"
	/>
<path class="st1" d="M35.1,17c0,0-0.1,0-0.1,0h-1h-2.1h-0.1c-0.2,0-0.2,0-0.3,0.2c-0.4,0.7-0.8,1.4-1.1,2.1l-1.8,3.5
	c0,0,0,0.1-0.1,0.1s0,0,0,0s0,0,0,0c0-0.1,0-0.2,0-0.2c0-0.1,0-0.2,0-0.4c0-2.2,0-4.4,0-6.6c0-0.7,0-1.5,0-2.2v-3c0-0.1,0-0.2,0-0.2
	c0.5,0.2,1,0.4,1.4,0.6C32.3,12.2,34.2,14.4,35.1,17C35.1,17,35.1,17,35.1,17z"/>
<path class="st1" d="M27.7,30.9l0.3-0.5c0.7-1.3,1.4-2.5,2.1-3.8l2.7-4.9l0.2-0.4c0,0,0.1-0.1,0.1-0.1l1.4-0.3l1.1-0.3h0.1
	c0,0.3,0,0.5,0,0.8s-0.1,0.5-0.1,0.8c-0.1,0.6-0.2,1.2-0.4,1.8c-1.1,3.1-3.5,5.6-6.7,6.7C28.2,30.8,27.9,30.8,27.7,30.9z"/>
</svg>
